<svg xmlns="http://www.w3.org/2000/svg" viewBox="0 0 80 80"><defs><linearGradient id="p" x1="0" x2="1" y1="0" y2="1"><stop stop-color="#fff0ad"/><stop offset="1" stop-color="#d69b43"/></linearGradient></defs><rect x="9" y="7" width="62" height="66" rx="12" fill="url(#p)" stroke="#a96932" stroke-width="3"/><path d="M39 57V24M39 31c-9-8-14-2-14 3 5 2 10 1 14-3Zm1 9c9-8 14-2 14 3-5 2-10 1-14-3Zm-1-17c-7-8-12-3-12 2 4 2 9 1 12-2Zm2 26c7-7 12-3 12 2-4 2-9 1-12-2Z" fill="#d39c36"/><path d="M39 58c-8-9-16-6-19-1 7 5 13 5 19 1Zm1 0c8-9 16-6 19-1-7 5-13 5-19 1Z" fill="#559344"/></svg>